<?xml version="1.0" encoding="UTF-8" standalone="no"?>
<!-- Created with Inkscape (http://www.inkscape.org/) -->

<svg
   xmlns:dc="http://purl.org/dc/elements/1.1/"
   xmlns:cc="http://creativecommons.org/ns#"
   xmlns:rdf="http://www.w3.org/1999/02/22-rdf-syntax-ns#"
   xmlns:svg="http://www.w3.org/2000/svg"
   xmlns="http://www.w3.org/2000/svg"
   xmlns:sodipodi="http://sodipodi.sourceforge.net/DTD/sodipodi-0.dtd"
   xmlns:inkscape="http://www.inkscape.org/namespaces/inkscape"
   width="210mm"
   height="297mm"
   viewBox="0 0 210 297"
   version="1.1"
   id="svg8"
   inkscape:version="0.92.4 (5da689c313, 2019-01-14)"
   sodipodi:docname="cipher_logo.svg">
  <defs
     id="defs2" />
  <sodipodi:namedview
     id="base"
     pagecolor="#ffffff"
     bordercolor="#666666"
     borderopacity="1.0"
     inkscape:pageopacity="0.0"
     inkscape:pageshadow="2"
     inkscape:zoom="0.98994949"
     inkscape:cx="236.32963"
     inkscape:cy="488.38333"
     inkscape:document-units="mm"
     inkscape:current-layer="layer1"
     showgrid="false"
     inkscape:window-width="1920"
     inkscape:window-height="1017"
     inkscape:window-x="-8"
     inkscape:window-y="-8"
     inkscape:window-maximized="1" />
  <metadata
     id="metadata5">
    <rdf:RDF>
      <cc:Work
         rdf:about="">
        <dc:format>image/svg+xml</dc:format>
        <dc:type
           rdf:resource="http://purl.org/dc/dcmitype/StillImage" />
        <dc:title></dc:title>
      </cc:Work>
    </rdf:RDF>
  </metadata>
  <g
     inkscape:label="Layer 1"
     inkscape:groupmode="layer"
     id="layer1">
    <path
       style="fill:none;stroke:#000000;stroke-width:0.26458332px;stroke-linecap:butt;stroke-linejoin:miter;stroke-opacity:1"
       d="m 95.438988,78.104536 -1.842635,1.039437 -2.078868,1.464656 -2.4096,2.031622 -1.937126,2.078868 -1.937128,2.645834 -1.46466,2.929315 -1.133927,2.88207 -0.755952,3.260045 -0.141742,2.976562 -0.04725,8.031995 0.09449,10.67783 -1.984367,0.0472 -2.882068,0.75596 -1.74814,0.66146 -2.126116,1.60639 -0.850446,0.70871 -1.228423,1.41741 -0.944941,1.37016 -0.614211,1.7009 -0.708705,2.12611 -0.09449,2.55134 0.09449,30.52158 0.09449,1.13393 0.236235,1.13393 0.708705,1.84263 0.755953,1.22842 0.897693,1.27567 1.181176,1.18118 1.41741,1.13393 1.27567,0.75595 1.653646,0.75595 1.606399,0.61421 1.606399,0.18899 2.409598,0.0945 53.105663,-0.0945 2.50409,-0.61421 0.99219,-0.37798 2.26785,-1.08668 2.12612,-1.70089 1.74814,-2.07887 1.27567,-2.59859 0.56696,-1.5119 v -1.22842 -32.83669 l -0.42522,-2.26785 -1.03944,-2.26786 -1.18117,-1.70089 -1.32292,-1.32292 -1.6064,-1.22842 -2.26785,-1.13393 -1.84264,-0.51972 -1.41741,-0.33073 -1.93713,-0.0945 -0.18898,-21.591891 -0.47247,-2.456845 -0.66146,-2.22061 -1.46466,-3.118303 -1.65365,-2.598587 -1.41741,-1.889881 -2.07887,-2.078869 -1.41741,-1.133928 -2.26785,-1.559152 -1.65365,-0.755953 -2.17336,-1.039434 -2.17337,-0.850447 -2.59858,-0.708705 -1.79539,-0.283482 -2.17336,-0.236235 -1.7009,-0.09449 -2.26785,0.09449 -1.84264,0.09449 -2.64583,0.47247 -3.023813,0.8032 z"
       id="path4540"
       inkscape:connector-curvature="0" />
    <path
       style="fill:none;stroke:#000000;stroke-width:0.29933718px;stroke-linecap:butt;stroke-linejoin:miter;stroke-opacity:1"
       d="m 107.36765,133.71957 -1.63909,0.0824 -1.24884,0.30201 -1.11875,0.57655 -0.85856,0.52165 -0.85858,0.76873 -0.62441,0.68638 -0.72849,1.01583 -0.572392,1.18057 -0.33822,1.37276 -0.026,2.0042 0.36425,1.23548 0.546362,1.0982 0.80654,0.87857 0.78052,0.87856 0.91061,0.63147 0.62441,0.46673 -0.0521,12.73912 0.31222,0.98839 0.59839,0.76874 0.67645,0.57656 0.70247,0.32945 0.54637,0.21964 2.21148,0.13727 1.04069,-0.46671 0.57238,-0.4393 0.65043,-0.71382 0.4423,-0.71382 0.23415,-0.54913 0.026,-12.90384 1.11874,-0.76874 1.0407,-0.85111 0.83256,-0.96092 0.65043,-1.23548 0.31221,-1.0433 0.10408,-2.63567 -0.26017,-1.07075 -0.72849,-1.37276 -0.80654,-1.0982 -0.70247,-0.71383 -0.62441,-0.52165 -1.11875,-0.65891 -0.80654,-0.43929 -0.88459,-0.24709 -0.85858,-0.13728 -0.65042,0.0274 z"
       id="path5128"
       inkscape:connector-curvature="0" />
    <path
       style="fill:none;stroke:#000000;stroke-width:0.27923396px;stroke-linecap:butt;stroke-linejoin:miter;stroke-opacity:1"
       d="m 88.979826,117.88867 h 0.271277 l 37.165347,-0.0459 V 94.379833 l -0.37978,-1.741384 -0.75959,-1.420611 -0.81383,-1.695565 -1.46492,-1.787214 -1.79045,-1.787223 -2.11598,-1.512259 -1.84471,-0.916521 -2.17023,-0.870692 -2.00747,-0.595738 -2.38728,-0.412441 -2.11597,-0.137478 -2.11598,-0.04588 -1.95322,0.137477 -2.00747,0.366613 -2.17024,0.687395 -2.224505,0.962341 -2.115978,1.099827 -1.844705,1.099828 -1.139379,1.008179 -1.356394,1.46643 -1.302145,1.878871 -1.085121,2.291303 -0.325537,1.46643 0.05426,1.237305 z"
       id="path5150"
       inkscape:connector-curvature="0" />
    <flowRoot
       xml:space="preserve"
       id="flowRoot5172"
       style="font-style:normal;font-variant:normal;font-weight:normal;font-stretch:normal;font-size:48px;line-height:1.25;font-family:Broadway;-inkscape-font-specification:'Broadway, Normal';font-variant-ligatures:normal;font-variant-caps:normal;font-variant-numeric:normal;font-feature-settings:normal;text-align:start;letter-spacing:0px;word-spacing:0px;writing-mode:lr-tb;text-anchor:start;fill:#000000;fill-opacity:1;stroke:none"
       transform="matrix(0.37831936,-0.00838094,0,0.5653999,-33.101332,-211.71091)"><flowRegion
         id="flowRegion5174"
         style="font-style:normal;font-variant:normal;font-weight:normal;font-stretch:normal;font-size:48px;font-family:Broadway;-inkscape-font-specification:'Broadway, Normal';font-variant-ligatures:normal;font-variant-caps:normal;font-variant-numeric:normal;font-feature-settings:normal;text-align:start;writing-mode:lr-tb;text-anchor:start"><rect
           id="rect5176"
           width="320"
           height="88.571426"
           x="277.14285"
           y="672.51971"
           style="font-style:normal;font-variant:normal;font-weight:normal;font-stretch:normal;font-size:48px;font-family:Broadway;-inkscape-font-specification:'Broadway, Normal';font-variant-ligatures:normal;font-variant-caps:normal;font-variant-numeric:normal;font-feature-settings:normal;text-align:start;writing-mode:lr-tb;text-anchor:start" /></flowRegion><flowPara
         id="flowPara5178">CIPHER</flowPara></flowRoot>  </g>
</svg>
